<?xml version="1.0" encoding="UTF-8"?>
<svg id="Layer_1" xmlns="http://www.w3.org/2000/svg" version="1.1" viewBox="0 0 122.88 96.84">
  <!-- Generator: Adobe Illustrator 29.5.1, SVG Export Plug-In . SVG Version: 2.1.0 Build 141)  -->
  <defs>
    <style>
      .st0 {
        fill: #ffdac5;
        fill-rule: evenodd;
      }
    </style>
  </defs>
  <path class="st0" d="M31.96,0c14.08,0,26.03,12.61,30.29,30.11-1.07.94-2.12,1.92-3.15,2.95-9.36,9.36-15.11,20.63-16.82,31.26-1.2,7.41-.44,14.53,2.38,20.54-2.72,1.63-5.64,2.76-8.69,3.29,5.92-23.37,3.06-34.99-1.37-45.75C30.31,31.98,24.49,20.81,31.06.01c.29,0,.6-.01.9-.01h0ZM115.57,26.95c12.48,12.48,8.59,36.61-8.69,53.89-15.95,15.95-37.73,20.49-50.8,11.29,20.71-12.34,26.9-22.58,31.38-33.32,4.33-10.4,8.12-22.42,27.47-32.47.21.19.43.4.64.61h0ZM53.98,90.46c-.34-.3-.67-.61-.99-.93-12.48-12.48-8.59-36.61,8.69-53.89,16.28-16.28,38.63-20.67,51.6-10.7-20.75,10.48-26.36,19.28-30.92,30.23-4.28,10.26-8.91,23.41-28.38,35.29h0ZM33.31,88.46c-.45.03-.9.04-1.35.04C14.31,88.5,0,68.69,0,44.25,0,21.23,12.7,2.31,28.93.2c-7.27,22.08-5.01,32.27-.5,43.23,4.23,10.29,10.25,22.86,4.88,45.03h0Z"/>
</svg>